<mxfile host="Electron" modified="2024-04-24 22:33:30.452883" agent="Mozilla/5.0 (Windows NT 10.0; Win64; x64) AppleWebKit/537.36 (KHTML, like Gecko) draw.io/23.0.2 Chrome/120.0.6099.109 Electron/28.1.0 Safari/537.36" etag="UcM-qdOotcxloVswMzpP" version="23.0.2" type="device">
  <diagram name="Page-1" id="simple">
    <mxGraphModel dx="1434" dy="836" grid="1" gridSize="10" guides="1" tooltips="1" connect="1" arrows="1" fold="1" page="1" pageScale="1" pageWidth="827" pageHeight="1169" math="1" shadow="0">
      <root>
        <mxCell id="0" />
        <mxCell id="1" parent="0" />
                <mxCell id="collsionpoint-0" value="" style="ellipse;whiteSpace=wrap;html=1;aspect=fixed;fontSize=20;fillColor=#eeeeee;strokeColor=#36393d;" vertex="1" parent="1">
          <mxGeometry x="105" y="15" width="30" height="30" as="geometry" />
        </mxCell>
        <mxCell id="routepoint-0" value="" style="shape=waypoint;sketch=0;fillStyle=solid;size=6;pointerEvents=1;points=[];fillColor=none;resizable=0;rotatable=0;perimeter=centerPerimeter;snapToPoint=1;fontSize=20;" vertex="1" parent="1">
          <mxGeometry x="-10" y="20" width="20" height="20" as="geometry" />
        </mxCell>
        <mxCell id="routepointtext-0" value="\(p_{0}\)" style="text;html=1;align=center;verticalAlign=middle;resizable=0;points=[];autosize=1;strokeColor=none;fillColor=none;fontSize=20;" vertex="1" parent="1">
          <mxGeometry x="-15" y="20" width="70" height="30" as="geometry" />
        </mxCell>
        <mxCell id="routepoint-1" value="" style="shape=waypoint;sketch=0;fillStyle=solid;size=6;pointerEvents=1;points=[];fillColor=none;resizable=0;rotatable=0;perimeter=centerPerimeter;snapToPoint=1;fontSize=20;" vertex="1" parent="1">
          <mxGeometry x="-10" y="20" width="20" height="20" as="geometry" />
        </mxCell>
        <mxCell id="routepointtext-1" value="\(p_{1}\)" style="text;html=1;align=center;verticalAlign=middle;resizable=0;points=[];autosize=1;strokeColor=none;fillColor=none;fontSize=20;" vertex="1" parent="1">
          <mxGeometry x="-15" y="20" width="70" height="30" as="geometry" />
        </mxCell>
        <mxCell id="routepoint-2" value="" style="shape=waypoint;sketch=0;fillStyle=solid;size=6;pointerEvents=1;points=[];fillColor=none;resizable=0;rotatable=0;perimeter=centerPerimeter;snapToPoint=1;fontSize=20;" vertex="1" parent="1">
          <mxGeometry x="230" y="20" width="20" height="20" as="geometry" />
        </mxCell>
        <mxCell id="routepointtext-2" value="\(p_{2}\)" style="text;html=1;align=center;verticalAlign=middle;resizable=0;points=[];autosize=1;strokeColor=none;fillColor=none;fontSize=20;" vertex="1" parent="1">
          <mxGeometry x="225" y="20" width="70" height="30" as="geometry" />
        </mxCell>
        <mxCell id="routepoint-3" value="" style="shape=waypoint;sketch=0;fillStyle=solid;size=6;pointerEvents=1;points=[];fillColor=none;resizable=0;rotatable=0;perimeter=centerPerimeter;snapToPoint=1;fontSize=20;" vertex="1" parent="1">
          <mxGeometry x="230" y="20" width="20" height="20" as="geometry" />
        </mxCell>
        <mxCell id="routepointtext-3" value="\(p_{3}\)" style="text;html=1;align=center;verticalAlign=middle;resizable=0;points=[];autosize=1;strokeColor=none;fillColor=none;fontSize=20;" vertex="1" parent="1">
          <mxGeometry x="225" y="20" width="70" height="30" as="geometry" />
        </mxCell>

      </root>
    </mxGraphModel>
  </diagram>
</mxfile>
